<?xml version="1.0" encoding="utf-8"?>
<!-- Generator: Adobe Illustrator 22.0.1, SVG Export Plug-In . SVG Version: 6.00 Build 0)  -->
<svg version="1.1" id="Layer_1" xmlns="http://www.w3.org/2000/svg" xmlns:xlink="http://www.w3.org/1999/xlink" x="0px" y="0px"
	 viewBox="0 0 500 500" style="enable-background:new 0 0 500 500;" xml:space="preserve">
<style type="text/css">
	.st0{fill:#FFFFFF;}
	.st1{fill:none;stroke:#1A1887;stroke-width:15;stroke-miterlimit:10;}
	.st2{fill:none;stroke:#000000;stroke-width:20;stroke-miterlimit:10;}
</style>
<g id="XMLID_1_">
	<g>
		<polygon class="st0" points="156,203 109,250 156,297 109,344 15,250 109,156 		"/>
	</g>
	<g>
		<polygon class="st1" points="109,250 156,297 109,344 15,250 109,156 156,203 		"/>
	</g>
</g>
<g id="XMLID_2_">
	<g>
		<polygon class="st0" points="485,250 391,344 344,297 391,250 344,203 391,156 		"/>
	</g>
	<g>
		<polygon class="st1" points="485,250 391,344 344,297 391,250 344,203 391,156 		"/>
	</g>
</g>
<g id="XMLID_3_">
	<g>
		
			<rect x="122.8" y="216.8" transform="matrix(0.7071 -0.7071 0.7071 0.7071 -131.0854 183.532)" class="st0" width="66.5" height="66.5"/>
	</g>
	<g>
		
			<rect x="122.8" y="216.8" transform="matrix(0.7071 -0.7071 0.7071 0.7071 -131.0854 183.532)" class="st2" width="66.5" height="66.5"/>
	</g>
</g>
<g id="XMLID_4_">
	<g>
		
			<rect x="310.8" y="216.8" transform="matrix(0.7071 -0.7071 0.7071 0.7071 -76.0214 316.468)" class="st0" width="66.5" height="66.5"/>
	</g>
	<g>
		
			<rect x="310.8" y="216.8" transform="matrix(0.7071 -0.7071 0.7071 0.7071 -76.0214 316.468)" class="st2" width="66.5" height="66.5"/>
	</g>
</g>
<g id="XMLID_5_">
	<g>
		<polygon class="st0" points="344,203 297,250 344,297 250,391 156,297 203,250 156,203 250,109 		"/>
	</g>
	<g>
		<polygon class="st2" points="297,250 344,297 250,391 156,297 203,250 156,203 250,109 344,203 		"/>
	</g>
</g>
</svg>
