<?xml version="1.0" encoding="utf-8"?>
<!-- Generator: Adobe Illustrator 22.0.1, SVG Export Plug-In . SVG Version: 6.00 Build 0)  -->
<svg version="1.1" id="Layer_1" xmlns="http://www.w3.org/2000/svg" xmlns:xlink="http://www.w3.org/1999/xlink" x="0px" y="0px"
	 viewBox="0 0 1500 500" style="enable-background:new 0 0 1500 500;" xml:space="preserve">
<style type="text/css">
	.st0{fill:none;stroke:#1A1887;stroke-width:15;stroke-miterlimit:10;}
	.st1{fill:none;stroke:#000000;stroke-width:20;stroke-miterlimit:10;}
</style>
<g id="XMLID_3_">
	<g>
		<g>
			<polygon points="954,147 954,328 933,328 933,206.2 935.5,179 933.8,179 924.2,203.9 878.2,286 871.9,286 823.1,203.7 814,179 
				812.4,179 816,205.9 816,328 796,328 796,147 811.8,147 867.5,239.8 875.9,260 876.4,260 884.3,239.3 937.5,147 			"/>
		</g>
	</g>
</g>
<g id="XMLID_5_">
	<g>
		<path d="M1084.3,329.5h-15.4l-5.5-19h-1.1c-1.5,2.4-3.4,4.8-5.7,7.2c-2.3,2.4-5,4.4-8.2,6.3c-3.2,1.8-6.9,3.3-11.1,4.5
			c-4.2,1.2-9,1.8-14.4,1.8s-10.4-0.9-15.1-2.6c-4.6-1.7-8.6-4.2-12-7.4c-3.4-3.2-6-7.1-8-11.6c-1.9-4.5-2.9-9.6-2.9-15.4
			c0-7.6,1.5-14,4.6-19.1c3-5.1,7.3-9.2,12.8-12.2c5.5-3,12.1-5.2,19.8-6.5c7.7-1.3,16.2-1.9,25.5-1.9h7.1c2.3,0,4.6,0.2,7,0.5
			c0.5-5.3,0.8-10,0.8-14.2c0-9.7-1.9-16.4-5.6-20.3c-3.8-3.9-10.6-5.8-20.5-5.8c-2.9,0-6,0.2-9.3,0.7c-3.3,0.5-6.8,1.1-10.2,1.9
			c-3.5,0.8-6.8,1.8-10,3c-3.2,1.2-5.9,2.5-8.3,3.9l-6.4-16c6.5-4,14-7,22.7-8.9c8.6-1.9,17.6-2.9,27-2.9c8.9,0,16,1.2,21.4,3.7
			c5.4,2.5,9.5,5.7,12.3,9.6c2.8,4,4.7,8.3,5.6,13c0.9,4.7,1.4,9.5,1.4,14.2c0,10.5-0.3,20.8-0.8,30.8c-0.5,10-0.8,19.5-0.8,28.4
			c0,6.5,0.3,12.6,0.8,18.4C1082,319.3,1082.9,324.6,1084.3,329.5z M1061.5,292v-21.6c-2.4-0.2-4.8-0.3-7.2-0.4
			c-2.4-0.1-4.9-0.1-7.2-0.1c-5.2,0-10.3,0.3-15.3,0.9c-5,0.6-9.4,1.7-13.2,3.4c-3.8,1.6-6.8,3.9-9.1,6.8c-2.3,2.9-3.4,6.5-3.4,10.8
			c0,6.1,2.1,11,6.3,14.9c4.2,3.9,9.6,5.8,16.2,5.8c4.7,0,8.9-0.6,12.6-1.9c3.7-1.3,6.9-2.9,9.6-4.9c2.7-2,4.9-4.2,6.7-6.6
			C1059.3,296.6,1060.7,294.2,1061.5,292z"/>
	</g>
	<g>
	</g>
</g>
<g id="XMLID_1_">
	<g>
		<g>
			<polygon points="1220.1,199 1166.2,332 1157.6,332 1102.6,199 1125.9,199 1156.3,275.3 1163.4,300 1163.7,300 1170,274.8 
				1198.4,199 			"/>
		</g>
	</g>
</g>
<g id="XMLID_4_">
	<g>
		<path d="M1331.3,220.2c2.9,6.7,4.3,15.5,4.3,26.4c0,5.7-0.5,12-1.5,19h-81.2c0,7.6,0.8,14.4,2.3,20.3c1.5,5.9,3.9,10.9,7.1,14.9
			c3.2,4.1,7.4,7.2,12.5,9.4c5.1,2.2,11.4,3.3,18.8,3.3c5.7,0,11.5-1,17.2-3.1c5.7-2.1,10-4.5,12.9-7.3l7.6,15.1
			c-5.1,4.2-11.4,7.5-19.1,9.9c-7.7,2.4-15.8,3.6-24.4,3.6c-9.6,0-18-1.6-25-4.8c-7.1-3.2-12.9-7.8-17.5-13.8
			c-4.5-6-7.9-13.1-10.1-21.4c-2.2-8.3-3.3-17.7-3.3-28.1c0-22.2,4.8-39.1,14.4-50.7c9.6-11.6,23.3-17.4,41.2-17.4
			c5.7,0,11.5,0.7,17.2,1.9c5.7,1.3,10.9,3.8,15.4,7.4C1324.7,208.3,1328.4,213.5,1331.3,220.2z M1253.2,249.5h62.7
			c0-13.2-2.4-22.4-7.3-27.7c-4.9-5.3-11.8-7.9-20.7-7.9c-9.9,0-17.9,2.7-23.9,8.1C1257.9,227.3,1254.3,236.5,1253.2,249.5z"/>
	</g>
	<g>
	</g>
</g>
<g id="XMLID_2_">
	<g>
		<path d="M1469,250.6V329h-20v-74.4c0-13.5-1.9-23.7-5.7-30.6c-3.8-6.8-10.8-10.3-20.9-10.3c-8.9,0-16.3,2.5-22.1,7.4
			c-5.8,4.9-9.9,11.1-12.3,18.6V329h-20V199h14.3l3.8,16h1.4c4-5.5,9.4-10.1,16.1-13.6c6.8-3.5,14.8-5.3,24.1-5.3
			c6.8,0,12.8,0.8,18,2.5c5.2,1.7,9.5,4.5,12.9,8.7c3.4,4.1,6,9.7,7.8,16.8C1468.1,231,1469,239.8,1469,250.6z"/>
	</g>
	<g>
	</g>
</g>
<g id="XMLID_11_">
	<g>
	</g>
	<g>
		<polygon class="st0" points="179.7,249 251,320.3 179.7,391.7 37,249 179.7,106.3 251,177.7 		"/>
	</g>
</g>
<g id="XMLID_10_">
	<g>
	</g>
	<g>
		<polygon class="st0" points="750.3,249 607.7,391.7 536.3,320.3 607.7,249 536.3,177.7 607.7,106.3 		"/>
	</g>
</g>
<g id="XMLID_9_">
	<g>
	</g>
	<g>
		
			<rect x="200.6" y="198.6" transform="matrix(0.7071 -0.7071 0.7071 0.7071 -102.5534 250.4142)" class="st1" width="100.9" height="100.9"/>
	</g>
</g>
<g id="XMLID_8_">
	<g>
	</g>
	<g>
		
			<rect x="485.9" y="198.6" transform="matrix(0.7071 -0.7071 0.7071 0.7071 -18.9812 452.1754)" class="st1" width="100.9" height="100.9"/>
	</g>
</g>
<g id="XMLID_7_">
	<g>
	</g>
	<g>
		<polygon class="st1" points="465,249 536.3,320.3 393.7,463 251,320.3 322.3,249 251,177.7 393.7,35 536.3,177.7 		"/>
	</g>
</g>
</svg>
